<svg xmlns="http://www.w3.org/2000/svg" viewBox="0 0 606 190.01"><defs><style>.cls-1{isolation:isolate;}.cls-2,.cls-7{mix-blend-mode:multiply;}.cls-3{fill:#821825;}.cls-4,.cls-6{fill:none;stroke-width:17px;}.cls-4{stroke:#821825;}.cls-10,.cls-4,.cls-6,.cls-8,.cls-9{stroke-miterlimit:10;}.cls-5{fill:#c91c28;}.cls-6{stroke:#fc2222;}.cls-7{opacity:0.75;}.cls-8{stroke:#000;}.cls-10,.cls-8,.cls-9{stroke-width:3px;}.cls-9{fill:#f11624;}.cls-10,.cls-9{stroke:#fff;}.cls-10{fill:#af1b1d;}</style></defs><title>seussology-logo</title><g class="cls-1"><g id="Layer_1" data-name="Layer 1"><g class="cls-2"><path class="cls-3" d="M561.5,213c-10.89-.17-30.11-.54-54-1.44-153.19-5.8-207.42-22.59-308-18a797.64,797.64,0,0,0-111,13c-3.36,0-21-.29-35.31-10.59C44.12,189.4,38.5,180.4,38.5,170.49V98.43c0-19.81,22.5-36,50-36a882.78,882.78,0,0,0,102,5.76c117.28-.24,169.08-24,279-20.89a720.72,720.72,0,0,1,93,8.64C569.28,57,590.8,60.86,605.81,73c3.61,2.92,10.49,8.45,13.36,17.21a26.31,26.31,0,0,1,1.33,8.23v72.06c-.67,4.56-3.14,15.37-14.69,25.44C589.38,210.28,566.67,212.57,561.5,213Z" transform="translate(-23 -31.5)"/><path class="cls-4" d="M561.5,213c-10.89-.17-30.11-.54-54-1.44-153.19-5.8-207.42-22.59-308-18a797.64,797.64,0,0,0-111,13c-3.36,0-21-.29-35.31-10.59C44.12,189.4,38.5,180.4,38.5,170.49V98.43c0-19.81,22.5-36,50-36a882.78,882.78,0,0,0,102,5.76c117.28-.24,169.08-24,279-20.89a720.72,720.72,0,0,1,93,8.64C569.28,57,590.8,60.86,605.81,73c3.61,2.92,10.49,8.45,13.36,17.21a26.31,26.31,0,0,1,1.33,8.23v72.06c-.67,4.56-3.14,15.37-14.69,25.44C589.38,210.28,566.67,212.57,561.5,213Z" transform="translate(-23 -31.5)"/></g><path class="cls-5" d="M554.5,206c-10.89-.17-30.11-.54-54-1.44-153.19-5.8-207.42-22.59-308-18a797.64,797.64,0,0,0-111,13c-3.36,0-21-.29-35.31-10.59C37.12,182.4,31.5,173.4,31.5,163.49V91.43c0-19.81,22.5-36,50-36a882.78,882.78,0,0,0,102,5.76c117.28-.24,169.08-24,279-20.89a720.72,720.72,0,0,1,93,8.64C562.28,50,583.8,53.86,598.81,66c3.61,2.92,10.49,8.45,13.36,17.21a26.31,26.31,0,0,1,1.33,8.23v72.06c-.67,4.56-3.14,15.37-14.69,25.44C582.38,203.28,559.67,205.57,554.5,206Z" transform="translate(-23 -31.5)"/><path class="cls-6" d="M554.5,206c-10.89-.17-30.11-.54-54-1.44-153.19-5.8-207.42-22.59-308-18a797.64,797.64,0,0,0-111,13c-3.36,0-21-.29-35.31-10.59C37.12,182.4,31.5,173.4,31.5,163.49V91.43c0-19.81,22.5-36,50-36a882.78,882.78,0,0,0,102,5.76c117.28-.24,169.08-24,279-20.89a720.72,720.72,0,0,1,93,8.64C562.28,50,583.8,53.86,598.81,66c3.61,2.92,10.49,8.45,13.36,17.21a26.31,26.31,0,0,1,1.33,8.23v72.06c-.67,4.56-3.14,15.37-14.69,25.44C582.38,203.28,559.67,205.57,554.5,206Z" transform="translate(-23 -31.5)"/><g class="cls-7"><path class="cls-8" d="M145.91,139q6.08,16.13-.22,28.27-5.43,10.49-18.53,15.82a49.88,49.88,0,0,1-24.68,3.67q-12.83-1.32-18.31-8.43L86.07,159q5.42,8.5,17.36,10.18t19.48-4.76q13.85-11.72-.88-22.12-4.75-3.44-25.71-11.94a34.57,34.57,0,0,1-14.65-10.91,33.43,33.43,0,0,1-6.88-15.67,32.45,32.45,0,0,1,1.76-17,34,34,0,0,1,11.2-14.86q7.77-6,23.08-8.79,16.77-3,24.53,2.41l-7,24.54q-8-2.05-9.81-2.42-9.17-1.46-13.26,2.79t-2.34,13.33c.43,2.44,2.66,5,6.66,7.76q2.92,2.06,13.18,7.62Q142.54,130,145.91,139Z" transform="translate(-23 -31.5)"/><path class="cls-8" d="M167.15,117.64q23.29-3.89,32.37,15.38a67.24,67.24,0,0,1,2.78,9.45l-35.81,9.15q1.24,9.6,11.79,10.4T200,155.65l1.32,12.89q-16,9.3-31.35,5.72T148.84,152.8Q140.79,125.69,167.15,117.64Zm2.42,12.23q-5.58,4.77-4.11,13.26l18.9-5.28Q179.61,127.31,169.57,129.87Z" transform="translate(-23 -31.5)"/><path class="cls-8" d="M256.14,117.42q.51,25.2-2.13,37.87a19.86,19.86,0,0,1-.73,3.59q-3.89,13.62-16.55,18.23A28.09,28.09,0,0,1,224.79,179a13.2,13.2,0,0,1-3.22-1q-9.09-4.32-12.67-21.38a77,77,0,0,1-1.83-16.19V129l19.7-5.49s-.17,1.78-.52,5.2c-.43,4.15-.73,7.86-.87,11.13q-.88,16.48,2.12,20.66t6.81.8a14,14,0,0,0,3.81-5.71,13.17,13.17,0,0,1,.51-1.69q3.88-21.67,1.83-34.49Z" transform="translate(-23 -31.5)"/><path class="cls-8" d="M306.24,158.8a15.75,15.75,0,0,1,.29,9.89,13,13,0,0,1-5.86,7.18q-8,5-21.83,3.44t-18.67-8l-.88-1.18,5-14.72,2.71,4.4q2.2,3.58,8.64,5.49t11,.22a10.46,10.46,0,0,0,2.78-1.32c.49-.34.69-.51.59-.51q-.23-2.86-15.09-10l-2.34-1.17a24.88,24.88,0,0,1-9.67-8.06,15,15,0,0,1-2.86-10.18l.15-1.32q1.68-8.72,12.38-12.08,5.72-1.83,15.89-1.25,11.43.74,16.41,4.47l2,1.46-7.83,12.16-1.1,1.76-3.08-1.17-4.54-1.69q-5.56-1.76-7.25-.22a3,3,0,0,0-.59,2.35q.53,1.32,8.72,6.37a99.19,99.19,0,0,1,9.38,6.37Q305.13,155.21,306.24,158.8Z" transform="translate(-23 -31.5)"/><path class="cls-8" d="M356.55,158.8a15.75,15.75,0,0,1,.3,9.89,13.09,13.09,0,0,1-5.86,7.18q-8,5-21.83,3.44t-18.68-8l-.88-1.18,5.06-14.72,2.71,4.4q2.19,3.58,8.64,5.49t11,.22a10.46,10.46,0,0,0,2.78-1.32c.49-.34.68-.51.59-.51q-.22-2.86-15.09-10l-2.35-1.17a24.85,24.85,0,0,1-9.66-8.06,15,15,0,0,1-2.86-10.18l.15-1.32q1.68-8.72,12.37-12.08,5.71-1.83,15.9-1.25,11.43.74,16.4,4.47l2,1.46-7.83,12.16-1.1,1.76-3.08-1.17-4.54-1.69q-5.57-1.76-7.25-.22a3,3,0,0,0-.59,2.35q.51,1.32,8.72,6.37a98.72,98.72,0,0,1,9.37,6.37Q355.46,155.21,356.55,158.8Z" transform="translate(-23 -31.5)"/><path class="cls-8" d="M408,143.64q3.73,11.87-.37,22.05T394,178.43q-9.53,2.56-18.82-4A34.46,34.46,0,0,1,362.05,156q-3.74-11.86.36-22.05T376,121.23q9.51-2.57,18.89,4A33.68,33.68,0,0,1,408,143.64Zm-19.78,23.8q3.3-.87,4.47-5.12a15.4,15.4,0,0,0-.37-9.23,16.84,16.84,0,0,0-5.05-8c-2.24-2-4.47-2.64-6.66-2.06s-3.69,2.28-4.47,5.06a16.31,16.31,0,0,0,.36,9.23,16.93,16.93,0,0,0,5.06,8Q385,168.32,388.19,167.44Z" transform="translate(-23 -31.5)"/><path class="cls-8" d="M430.38,186.27l-11.79.73-7.4-100.93,21.39,1.47Z" transform="translate(-23 -31.5)"/><path class="cls-8" d="M485.61,143.64q3.74,11.87-.37,22.05t-13.62,12.74q-9.53,2.56-18.83-4A34.46,34.46,0,0,1,439.68,156q-3.74-11.86.37-22.05t13.62-12.74q9.52-2.57,18.9,4A33.73,33.73,0,0,1,485.61,143.64Zm-19.78,23.8q3.3-.87,4.47-5.12a15.48,15.48,0,0,0-.37-9.23,16.91,16.91,0,0,0-5.05-8c-2.25-2-4.47-2.64-6.67-2.06s-3.68,2.28-4.46,5.06a16.22,16.22,0,0,0,.36,9.23,16.85,16.85,0,0,0,5.06,8Q462.6,168.32,465.83,167.44Z" transform="translate(-23 -31.5)"/><path class="cls-8" d="M545.08,165.91q2.34,18.09.66,23.87-1.25,10.69-12.82,16.34a35.05,35.05,0,0,1-11.28,3.51q-13.69,1.25-22.85-5.71a20.89,20.89,0,0,1-6.37-7.18l11.28-12.3q2.57,7.68,7.47,10.76a8.17,8.17,0,0,0,4.25,1.54q11.57.51,14-8.93a20.32,20.32,0,0,0,.08-9.53l-2-10.62-.07.22-.59-3.59q-7,2.51-10.69,2.5a24.55,24.55,0,0,1-17.65-7,23,23,0,0,1,0-33.69,24.69,24.69,0,0,1,17.65-7,25.82,25.82,0,0,1,2.93.22l-.66-3.88,17.94-3.59L543.69,157l.07-.07q.51,3,1,6.3l.44,2.71Zm-22.12-23c0-.25,0-.76-.07-1.54l-.59-3.52a12,12,0,0,0-2.56-4.9,5.36,5.36,0,0,0-4-2c-1.95,0-3.64,1.17-5,3.52a16.39,16.39,0,0,0-2.05,8.42,16.14,16.14,0,0,0,2.05,8.42c1.41,2.34,3.1,3.52,5,3.52s3.71-1.18,5.13-3.52A16.24,16.24,0,0,0,523,142.91Z" transform="translate(-23 -31.5)"/><path class="cls-8" d="M595.47,110.46l-34.86,104-14.43-10.18,14.72-50.76L545,123.06l17.22-10.4.51-.15L570,134l9-30.47Z" transform="translate(-23 -31.5)"/></g><path class="cls-9" d="M138.91,132q6.08,16.13-.22,28.27-5.43,10.49-18.53,15.82a49.88,49.88,0,0,1-24.68,3.67q-12.83-1.32-18.31-8.43L79.07,152q5.42,8.5,17.36,10.18t19.48-4.76q13.85-11.72-.88-22.12-4.75-3.44-25.71-11.94a34.57,34.57,0,0,1-14.65-10.91A33.43,33.43,0,0,1,67.79,96.8a32.45,32.45,0,0,1,1.76-17,34,34,0,0,1,11.2-14.86q7.77-6,23.08-8.79,16.77-3,24.53,2.41l-7,24.54q-8-2.05-9.81-2.42-9.17-1.46-13.26,2.79T95.92,96.8c.43,2.44,2.66,5,6.66,7.76q2.92,2.06,13.18,7.62Q135.54,123,138.91,132Z" transform="translate(-23 -31.5)"/><path class="cls-9" d="M160.15,110.64q23.29-3.89,32.37,15.38a67.24,67.24,0,0,1,2.78,9.45l-35.81,9.15q1.24,9.6,11.79,10.4T193,148.65l1.32,12.89q-16,9.3-31.35,5.72T141.84,145.8Q133.79,118.7,160.15,110.64Zm2.42,12.23q-5.58,4.77-4.11,13.26l18.9-5.28Q172.61,120.31,162.57,122.87Z" transform="translate(-23 -31.5)"/><path class="cls-9" d="M249.14,110.42q.51,25.2-2.13,37.87a19.86,19.86,0,0,1-.73,3.59q-3.89,13.62-16.55,18.23A28.09,28.09,0,0,1,217.79,172a13.2,13.2,0,0,1-3.22-1q-9.09-4.32-12.67-21.38a77,77,0,0,1-1.83-16.19V122l19.7-5.49s-.17,1.78-.52,5.2c-.43,4.15-.73,7.86-.87,11.13q-.88,16.48,2.12,20.66t6.81.8a14,14,0,0,0,3.81-5.71,13.17,13.17,0,0,1,.51-1.69q3.88-21.67,1.83-34.49Z" transform="translate(-23 -31.5)"/><path class="cls-9" d="M299.24,151.8a15.75,15.75,0,0,1,.29,9.89,13,13,0,0,1-5.86,7.18q-8,5-21.83,3.44t-18.67-8l-.88-1.18,5-14.72,2.71,4.4q2.2,3.58,8.64,5.49t11,.22a10.46,10.46,0,0,0,2.78-1.32c.49-.34.69-.51.59-.51q-.23-2.86-15.09-10l-2.34-1.17a24.88,24.88,0,0,1-9.67-8.06,15,15,0,0,1-2.86-10.18l.15-1.32q1.68-8.72,12.38-12.08,5.72-1.83,15.89-1.25,11.43.74,16.41,4.47l2,1.46-7.83,12.16-1.1,1.76-3.08-1.17-4.54-1.69q-5.56-1.76-7.25-.22a3,3,0,0,0-.59,2.35q.53,1.32,8.72,6.37a99.19,99.19,0,0,1,9.38,6.37Q298.13,148.21,299.24,151.8Z" transform="translate(-23 -31.5)"/><path class="cls-9" d="M349.55,151.8a15.75,15.75,0,0,1,.3,9.89,13.09,13.09,0,0,1-5.86,7.18q-8,5-21.83,3.44t-18.68-8l-.88-1.18,5.06-14.72,2.71,4.4q2.19,3.58,8.64,5.49t11,.22a10.46,10.46,0,0,0,2.78-1.32c.49-.34.68-.51.59-.51q-.22-2.86-15.09-10l-2.35-1.17a24.85,24.85,0,0,1-9.66-8.06,15,15,0,0,1-2.86-10.18l.15-1.32q1.68-8.72,12.37-12.08,5.71-1.83,15.9-1.25,11.43.74,16.4,4.47l2,1.46-7.83,12.16-1.1,1.76-3.08-1.17-4.54-1.69q-5.57-1.76-7.25-.22a3,3,0,0,0-.59,2.35q.51,1.32,8.72,6.37a98.72,98.72,0,0,1,9.37,6.37Q348.46,148.21,349.55,151.8Z" transform="translate(-23 -31.5)"/><path class="cls-10" d="M401,136.64q3.73,11.87-.37,22.05T387,171.43q-9.53,2.56-18.82-4A34.46,34.46,0,0,1,355.05,149q-3.74-11.86.36-22.05T369,114.23q9.51-2.57,18.89,4A33.68,33.68,0,0,1,401,136.64Zm-19.78,23.8q3.3-.87,4.47-5.12a15.4,15.4,0,0,0-.37-9.23,16.84,16.84,0,0,0-5.05-8c-2.24-2-4.47-2.64-6.66-2.06s-3.69,2.28-4.47,5.06a16.31,16.31,0,0,0,.36,9.23,16.93,16.93,0,0,0,5.06,8Q378,161.32,381.19,160.44Z" transform="translate(-23 -31.5)"/><path class="cls-10" d="M423.38,179.27l-11.79.73-7.4-100.93,21.39,1.47Z" transform="translate(-23 -31.5)"/><path class="cls-10" d="M478.61,136.64q3.74,11.87-.37,22.05t-13.62,12.74q-9.53,2.56-18.83-4A34.46,34.46,0,0,1,432.68,149q-3.74-11.86.37-22.05t13.62-12.74q9.52-2.57,18.9,4A33.73,33.73,0,0,1,478.61,136.64Zm-19.78,23.8q3.3-.87,4.47-5.12a15.48,15.48,0,0,0-.37-9.23,16.91,16.91,0,0,0-5.05-8c-2.25-2-4.47-2.64-6.67-2.06s-3.68,2.28-4.46,5.06a16.22,16.22,0,0,0,.36,9.23,16.85,16.85,0,0,0,5.06,8Q455.6,161.32,458.83,160.44Z" transform="translate(-23 -31.5)"/><path class="cls-10" d="M538.08,158.91q2.34,18.09.66,23.87-1.25,10.69-12.82,16.34a35.05,35.05,0,0,1-11.28,3.51q-13.69,1.25-22.85-5.71a20.89,20.89,0,0,1-6.37-7.18l11.28-12.3q2.57,7.68,7.47,10.76a8.17,8.17,0,0,0,4.25,1.54q11.56.51,14-8.93a20.32,20.32,0,0,0,.08-9.53l-2-10.62-.07.22-.59-3.59q-7,2.51-10.69,2.5a24.55,24.55,0,0,1-17.65-7,23,23,0,0,1,0-33.69,24.69,24.69,0,0,1,17.65-7,25.82,25.82,0,0,1,2.93.22l-.66-3.88,17.94-3.59L536.69,150l.07-.07q.51,3,1,6.3l.44,2.71Zm-22.12-23c0-.25,0-.76-.07-1.54l-.59-3.52a12,12,0,0,0-2.56-4.9,5.36,5.36,0,0,0-4-2c-1.95,0-3.64,1.17-5,3.52a16.39,16.39,0,0,0-2.05,8.42,16.14,16.14,0,0,0,2.05,8.42c1.41,2.34,3.1,3.52,5,3.52s3.71-1.18,5.13-3.52A16.24,16.24,0,0,0,516,135.91Z" transform="translate(-23 -31.5)"/><path class="cls-10" d="M588.47,103.46l-34.86,104-14.43-10.18,14.72-50.76L538,116.06l17.22-10.4.51-.15L563,127l9-30.47Z" transform="translate(-23 -31.5)"/></g></g></svg>